/* XPM */
static char *_f30920c66e3406de2b20826ccebca41xPu8dpVWFlyOtT6Z[] = {
/* columns rows colors chars-per-pixel */
"80 80 3 1 ",
"  c None",
". c black",
"X c #FFF200",
/* pixels */
"                                                                                ",
"                                                                                ",
"                                                                                ",
"                                                                                ",
"                                                                                ",
"                                                                                ",
"                                                                                ",
"                                                                                ",
"                                                                                ",
"                                                                                ",
"                                                                                ",
"                                                                                ",
"                                                                                ",
"                                                                                ",
"                                    .........                                   ",
"                                 ...XXXXXXXXX...                                ",
"                               ..XXXXXXXXXXXXXXX..                              ",
"                             ..XXXXXXXXXXXXXXXXXXX..                            ",
"                            .XXXXXXXXXXXXXXXXXXXXXXX.                           ",
"                           .XXXXXXXXXXXXXXXXXXXXXXXXX.                          ",
"                          .XXXXXXXXXXXXXXXXXXXXXXXXXXX.                         ",
"                         .XXXXXXXXXXXXXXXXXXXXXXXXXXXXX.                        ",
"                        .XXXXXXXXXXXXXXXXXXXXXXXXXXXXXXX.                       ",
"                        .XXXXXXXXXXXXXXXXXXXXXXXXXXXXXXX.                       ",
"                       .XXXXXXXXXXXXXXXXXXXXXXXXXXXXXXXXX.                      ",
"                      .XXXXXXXXXXXXXXXXXXXXXXXXXXXXXXXXXXX.                     ",
"                      .XXXXXXXXXXXXXXXXXXXXXXXXXXXXXXXXXXX.                     ",
"                      .XXXXXXXXXXXXXXXXXXXXXXXXXXXXXXXXXXX.                     ",
"                     .XXXXXXXXXXXXXXXXXXXXXXXXXXXXXXXXXXXXX.                    ",
"                     .XXXXXXXXXXXXXXXXXXXXXXXXXXXXXXXXXXXXX.                    ",
"                     .XXXXXXXXXXXXXXXXXXXXXXXXXXXXXXXXXXXXX.                    ",
"                    .XXXXXXXXXXXXXXXXXXXXXXXXXXXXXXXXXXXXXXX.                   ",
"                    .XXXXXXXXXXXXXXXXXXXXXXXXXXXXXXXXXXXXXXX.                   ",
"                    .XXXXXXXXXXXXXXXXXXXXXXXXXXXXXXXXXXXXXXX.                   ",
"                    .XXXXXXXXXXXXXXXXXXXXXXXXXXXXXXXXXXXXXXX.                   ",
"                    .XXXXXXXXXXXXXXXXXXXXXXXXXXXXXXXXXXXXXXX.                   ",
"                    .XXXXXXXXXXXXXXXXXXXXXXXXXXXXXXXXXXXXXXX.                   ",
"                    .XXXXXXXXXXXXXXXXXXXXXXXXXXXXXXXXXXXXXXX.                   ",
"                    .XXXXXXXXXXXXXXXXXXXXXXXXXXXXXXXXXXXXXXX.                   ",
"                    .XXXXXXXXXXXXXXXXXXXXXXXXXXXXXXXXXXXXXXX.                   ",
"                     .XXXXXXXXXXXXXXXXXXXXXXXXXXXXXXXXXXXXX.                    ",
"                     .XXXXXXXXXXXXXXXXXXXXXXXXXXXXXXXXXXXXX.                    ",
"                     .XXXXXXXXXXXXXXXXXXXXXXXXXXXXXXXXXXXXX.                    ",
"                      .XXXXXXXXXXXXXXXXXXXXXXXXXXXXXXXXXXX.                     ",
"                      .XXXXXXXXXXXXXXXXXXXXXXXXXXXXXXXXXXX.                     ",
"                      .XXXXXXXXXXXXXXXXXXXXXXXXXXXXXXXXXXX.                     ",
"                       .XXXXXXXXXXXXXXXXXXXXXXXXXXXXXXXXX.                      ",
"                        .XXXXXXXXXXXXXXXXXXXXXXXXXXXXXXX.                       ",
"                        .XXXXXXXXXXXXXXXXXXXXXXXXXXXXXXX.                       ",
"                         .XXXXXXXXXXXXXXXXXXXXXXXXXXXXX.                        ",
"                          .XXXXXXXXXXXXXXXXXXXXXXXXXXX.                         ",
"                           .XXXXXXXXXXXXXXXXXXXXXXXXX.                          ",
"                            .XXXXXXXXXXXXXXXXXXXXXXX.                           ",
"                             ..XXXXXXXXXXXXXXXXXXX..                            ",
"                               ..XXXXXXXXXXXXXXX..                              ",
"                                 ...XXXXXXXXX...                                ",
"                                    .........                                   ",
"                                                                                ",
"                                                                                ",
"                                                                                ",
"                                                                                ",
"                                                                                ",
"                                                                                ",
"                                                                                ",
"                                                                                ",
"                                                                                ",
"                                                                                ",
"                                                                                ",
"                                                                                ",
"                                                                                ",
"                                                                                ",
"                                                                                ",
"                                                                                ",
"                                                                                ",
"                                                                                ",
"                                                                                ",
"                                                                                ",
"                                                                                ",
"                                                                                ",
"                                                                                "
};
