/* XPM */
static char *_43c5727ec0f4272cd31ff57bd4c27a5YPcHDiE84ckn4dVq[] = {
/* columns rows colors chars-per-pixel */
"80 80 2 1 ",
"  c None",
". c #99D9EA",
/* pixels */
"                                                                                ",
"                                                                                ",
"                                                                                ",
"                                                                                ",
"                                                                                ",
"                                                                                ",
"                                                                                ",
"                                                                                ",
"                                                                                ",
"                                      .......                                   ",
"                                    ...........                                 ",
"                                   .............                                ",
"                                  ...............                               ",
"                                 .................                              ",
"                                ...................                             ",
"                               .....................                            ",
"                              .......................                           ",
"                              .......................                           ",
"                             .........................                          ",
"                             .........................                          ",
"                            ...........................                         ",
"                            ...........................                         ",
"                            ...........................                         ",
"                            ...........................                         ",
"                           .............................                        ",
"                           .............................                        ",
"                           .............................                        ",
"                           .............................                        ",
"                           .............................                        ",
"                           .............................                        ",
"                           .............................                        ",
"                           .............................                        ",
"                           .............................                        ",
"                           .............................                        ",
"                           .............................                        ",
"                            ...........................                         ",
"                            ...........................                         ",
"                            ...........................                         ",
"                            ...........................                         ",
"                             .........................                          ",
"                             .........................                          ",
"                              .......................                           ",
"                              .......................                           ",
"                               .....................                            ",
"                                ...................                             ",
"                                 .................                              ",
"                                  ...............                               ",
"                                   .............                                ",
"                                    ...........                                 ",
"                                      .......                                   ",
"                                                                                ",
"                                                                                ",
"                                                                                ",
"                                                                                ",
"                                                                                ",
"                                                                                ",
"                                                                                ",
"                                                                                ",
"                                                                                ",
"                                                                                ",
"                                                                                ",
"                                                                                ",
"                                                                                ",
"                                                                                ",
"                                                                                ",
"                                                                                ",
"                                                                                ",
"                                                                                ",
"                                                                                ",
"                                                                                ",
"                                                                                ",
"                                                                                ",
"                                                                                ",
"                                                                                ",
"                                                                                ",
"                                                                                ",
"                                                                                ",
"                                                                                ",
"                                                                                ",
"                                                                                "
};
